<svg width="50" height="50" viewBox="0 0 50 50" fill="none" xmlns="http://www.w3.org/2000/svg">
<path d="M25 22.9167C24.4475 22.9167 23.9176 23.1362 23.5269 23.5269C23.1362 23.9176 22.9167 24.4475 22.9167 25V35.4167C22.9167 35.9692 23.1362 36.4991 23.5269 36.8898C23.9176 37.2805 24.4475 37.5 25 37.5C25.5525 37.5 26.0824 37.2805 26.4731 36.8898C26.8638 36.4991 27.0833 35.9692 27.0833 35.4167V25C27.0833 24.4475 26.8638 23.9176 26.4731 23.5269C26.0824 23.1362 25.5525 22.9167 25 22.9167ZM27.5 14.5833C27.5 15.274 27.2256 15.9364 26.7373 16.4248C26.2489 16.9131 25.5865 17.1875 24.8958 17.1875C24.2052 17.1875 23.5428 16.9131 23.0544 16.4248C22.566 15.9364 22.2917 15.274 22.2917 14.5833C22.2917 13.8927 22.566 13.2303 23.0544 12.7419C23.5428 12.2535 24.2052 11.9792 24.8958 11.9792C25.5865 11.9792 26.2489 12.2535 26.7373 12.7419C27.2256 13.2303 27.5 13.8927 27.5 14.5833Z" fill="#231F15"/>
<path fill-rule="evenodd" clip-rule="evenodd" d="M50 25C50 38.8125 38.8125 50 25 50C11.1875 50 0 38.8125 0 25C0 11.1875 11.1875 0 25 0C38.8125 0 50 11.1875 50 25ZM47.9167 25C47.9167 37.6667 37.6667 47.9167 25 47.9167C12.3333 47.9167 2.08333 37.6667 2.08333 25C2.08333 12.3333 12.3333 2.08333 25 2.08333C37.6667 2.08333 47.9167 12.3333 47.9167 25Z" fill="#231F15"/>
</svg>
