<svg width="42" height="50" viewBox="0 0 42 50" fill="none" xmlns="http://www.w3.org/2000/svg">
<path d="M20.9981 5.23338e-07C22.8247 -0.000497761 24.6335 0.354832 26.3212 1.0457C28.0089 1.73657 29.5426 2.74945 30.8345 4.02651C32.1265 5.30357 33.1514 6.81979 33.8509 8.48862C34.5504 10.1574 34.9106 11.9462 34.9111 13.7527C34.9102 16.7388 33.9263 19.6434 32.1082 22.0274C30.2902 24.4114 27.7368 26.1452 24.834 26.9667C29.4257 27.5168 33.3652 29.1216 36.3304 32.0125C40.0935 35.6812 42 41.1481 42 48.2806C41.9785 48.7437 41.7773 49.1809 41.4383 49.5011C41.0993 49.8213 40.6486 50 40.1798 50C39.7111 50 39.2603 49.8213 38.9213 49.5011C38.5823 49.1809 38.3812 48.7437 38.3597 48.2806C38.3597 41.7552 36.622 37.3543 33.7719 34.5734C30.9141 31.7925 26.6523 30.3508 20.9981 30.3508C15.3515 30.3508 11.0859 31.7925 8.23198 34.5734C5.37802 37.3543 3.64033 41.7552 3.64033 48.2806C3.61883 48.7437 3.41767 49.1809 3.07868 49.5011C2.73968 49.8213 2.28894 50 1.82017 50C1.35139 50 0.900647 49.8213 0.561655 49.5011C0.222662 49.1809 0.0215033 48.7437 0 48.2806C0 41.1481 1.90648 35.685 5.6734 32.0087C8.63476 29.1254 12.5743 27.5206 17.1621 26.9705C13.9516 26.0448 11.1856 24.0063 9.37061 21.2283C7.55561 18.4503 6.81306 15.1187 7.27889 11.8434C7.74472 8.5682 9.38777 5.56848 11.9072 3.3935C14.4267 1.21853 17.6539 0.0138403 20.9981 5.23338e-07ZM20.9981 3.60416C19.627 3.56708 18.2622 3.80215 16.9845 4.29548C15.7068 4.78882 14.542 5.53042 13.5589 6.47647C12.5758 7.42251 11.7944 8.55382 11.2609 9.80357C10.7273 11.0533 10.4524 12.3961 10.4524 13.7527C10.4524 15.1093 10.7273 16.4521 11.2609 17.7019C11.7944 18.9516 12.5758 20.0829 13.5589 21.029C14.542 21.975 15.7068 22.7166 16.9845 23.21C18.2622 23.7033 19.627 23.9384 20.9981 23.9013C23.6709 23.829 26.2098 22.7281 28.0745 20.8327C29.9392 18.9374 30.9825 16.3972 30.9825 13.7527C30.9825 11.1082 29.9392 8.56806 28.0745 6.67272C26.2098 4.77738 23.6709 3.67645 20.9981 3.60416Z" fill="#231F15"/>
</svg>
