<svg width="48" height="53" viewBox="0 0 48 53" fill="none" xmlns="http://www.w3.org/2000/svg">
<path d="M40.4996 51.5H7.5C6.70955 51.5 5.92688 51.3438 5.19698 51.0404C4.46707 50.737 3.80431 50.2924 3.24677 49.7321C2.68923 49.1717 2.24791 48.5068 1.94815 47.7754C1.6484 47.044 1.49612 46.2605 1.50008 45.4701V17.3304C1.50008 16.3755 1.95007 15.4955 2.70006 14.918L22.1498 2.10314C22.6683 1.71174 23.3002 1.5 23.9498 1.5C24.5994 1.5 25.2313 1.71174 25.7498 2.10314L45.2995 14.918C46.0495 15.4955 46.4995 16.3755 46.4995 17.3304V45.4701C46.5035 46.2605 46.3512 47.044 46.0514 47.7754C45.7517 48.5068 45.3103 49.1717 44.7528 49.7321C44.1953 50.2924 43.5325 50.737 42.8026 51.0404C42.0727 51.3438 41.29 51.5 40.4996 51.5Z" stroke="#231F15" stroke-width="3" stroke-miterlimit="10" stroke-linejoin="round"/>
<path d="M18.4998 26.5003H29.4997C30.5997 26.5003 31.4997 27.4003 31.4997 28.5003V51.5H16.4999V28.5003C16.4999 27.4003 17.3998 26.5003 18.4998 26.5003Z" stroke="#231F15" stroke-width="3" stroke-miterlimit="10" stroke-linejoin="round"/>
</svg>
