<svg width="50" height="50" viewBox="0 0 50 50" fill="none" xmlns="http://www.w3.org/2000/svg">
<path d="M43.0089 0H6.99105C5.1385 0.00516549 3.3633 0.74338 2.05334 2.05334C0.74338 3.3633 0.00516549 5.1385 0 6.99105V43.0089C0.00516549 44.8615 0.74338 46.6367 2.05334 47.9467C3.3633 49.2566 5.1385 49.9948 6.99105 50H43.0089C44.8631 50 46.6413 49.2634 47.9524 47.9524C49.2634 46.6413 50 44.8631 50 43.0089V6.99105C50 5.13691 49.2634 3.35871 47.9524 2.04763C46.6413 0.736555 44.8631 0 43.0089 0ZM47.2036 43.0089C47.1963 44.1192 46.752 45.1818 45.9669 45.9669C45.1818 46.752 44.1192 47.1963 43.0089 47.2036H6.99105C5.88083 47.1963 4.81816 46.752 4.0331 45.9669C3.24803 45.1818 2.80375 44.1192 2.79642 43.0089V6.99105C2.80375 5.88083 3.24803 4.81816 4.0331 4.0331C4.81816 3.24803 5.88083 2.80375 6.99105 2.79642H43.0089C44.1192 2.80375 45.1818 3.24803 45.9669 4.0331C46.752 4.81816 47.1963 5.88083 47.2036 6.99105V43.0089Z" fill="black"/>
<path d="M9.27293 21.4989C9.27293 20.7572 9.56755 20.0459 10.092 19.5215C10.6164 18.9971 11.3277 18.7025 12.0694 18.7025C12.811 18.7025 13.5223 18.9971 14.0467 19.5215C14.5711 20.0459 14.8658 20.7572 14.8658 21.4989V39.6756C14.8658 40.4173 14.5711 41.1286 14.0467 41.653C13.5223 42.1774 12.811 42.472 12.0694 42.472C11.3277 42.472 10.6164 42.1774 10.092 41.653C9.56755 41.1286 9.27293 40.4173 9.27293 39.6756V21.4989Z" fill="black"/>
<path d="M12.0694 13.0984C13.6138 13.0984 14.8658 11.8464 14.8658 10.302C14.8658 8.75759 13.6138 7.50559 12.0694 7.50559C10.5249 7.50559 9.27293 8.75759 9.27293 10.302C9.27293 11.8464 10.5249 13.0984 12.0694 13.0984Z" fill="black"/>
<path d="M40.7159 28.8311V39.6812C40.7159 40.4229 40.4213 41.1341 39.8968 41.6586C39.3724 42.183 38.6611 42.4776 37.9195 42.4776C37.1778 42.4776 36.4665 42.183 35.9421 41.6586C35.4177 41.1341 35.123 40.4229 35.123 39.6812V28.8311C35.123 27.6333 34.6472 26.4846 33.8003 25.6376C32.9533 24.7907 31.8046 24.3149 30.6068 24.3149C29.409 24.3149 28.2603 24.7907 27.4134 25.6376C26.5664 26.4846 26.0906 27.6333 26.0906 28.8311V39.6812C26.0906 40.4229 25.796 41.1341 25.2716 41.6586C24.7471 42.183 24.0358 42.4776 23.2942 42.4776C22.5525 42.4776 21.8412 42.183 21.3168 41.6586C20.7924 41.1341 20.4978 40.4229 20.4978 39.6812V21.5045C20.5093 20.7664 20.8076 20.0618 21.3296 19.5399C21.8515 19.0179 22.5561 18.7196 23.2942 18.7081C23.7678 18.6951 24.2362 18.8104 24.6497 19.0417C25.0632 19.2731 25.4064 19.6119 25.6432 20.0224C27.1808 19.1509 28.9203 18.6984 30.6878 18.7101C32.4552 18.7218 34.1885 19.1973 35.7145 20.0891C37.2405 20.9809 38.5055 22.2577 39.3832 23.7919C40.2609 25.326 40.7205 27.0637 40.7159 28.8311Z" fill="black"/>
</svg>
