<svg width="50" height="39" viewBox="0 0 50 39" fill="none" xmlns="http://www.w3.org/2000/svg">
<path d="M7.89474 0H42.1053C44.1991 0 46.2071 0.821784 47.6877 2.28457C49.1682 3.74735 50 5.73131 50 7.8V31.2C50 33.2687 49.1682 35.2526 47.6877 36.7154C46.2071 38.1782 44.1991 39 42.1053 39H7.89474C5.80092 39 3.79287 38.1782 2.31232 36.7154C0.831765 35.2526 0 33.2687 0 31.2V7.8C0 5.73131 0.831765 3.74735 2.31232 2.28457C3.79287 0.821784 5.80092 0 7.89474 0ZM7.89474 2.6C6.57895 2.6 5.42105 3.042 4.52632 3.822L25 16.9L45.4737 3.822C44.5789 3.042 43.4211 2.6 42.1053 2.6H7.89474ZM25 20.046L2.97368 5.928C2.76316 6.5 2.63158 7.15 2.63158 7.8V31.2C2.63158 32.5791 3.18609 33.9018 4.17312 34.877C5.16016 35.8521 6.49886 36.4 7.89474 36.4H42.1053C43.5011 36.4 44.8398 35.8521 45.8269 34.877C46.8139 33.9018 47.3684 32.5791 47.3684 31.2V7.8C47.3684 7.15 47.2368 6.5 47.0263 5.928L25 20.046Z" fill="black"/>
</svg>
