<svg width="47" height="51" viewBox="0 0 47 51" fill="none" xmlns="http://www.w3.org/2000/svg">
<path d="M45.25 12.8008C45.25 6.55939 40.5865 1.5 34.8333 1.5H34.2406C33.6161 1.50011 33.006 1.70322 32.4889 2.08311C31.9718 2.46301 31.5715 3.00227 31.3396 3.63134L28.7708 10.5972C28.4679 11.4185 28.3938 12.3182 28.5577 13.1848C28.7215 14.0514 29.1162 14.8468 29.6927 15.4724L32.8979 18.9496C33.4115 19.5068 33.6271 20.317 33.4167 21.0719C32.4174 24.622 30.6294 27.8514 28.2101 30.4761C25.7907 33.1008 22.814 35.0405 19.5417 36.1246C18.8458 36.354 18.099 36.119 17.5854 35.5619L14.3802 32.0846C13.8036 31.4591 13.0704 31.031 12.2716 30.8532C11.4728 30.6754 10.6435 30.7558 9.88646 31.0845L3.46458 33.8713C2.88473 34.1228 2.38766 34.5571 2.03749 35.1181C1.68732 35.6791 1.5001 36.341 1.5 37.0185V37.6627C1.5 43.9041 6.16354 48.9635 11.9167 48.9635H12.4375C30.2604 48.9635 44.7646 33.5469 45.2385 14.3355C45.2385 14.3295 45.2403 14.3246 45.2437 14.3208C45.2474 14.3169 45.2497 14.3117 45.25 14.3061V12.8008Z" stroke="black" stroke-width="3" stroke-linejoin="round"/>
</svg>
