<?xml version="1.0" encoding="UTF-8"?>
<svg id="Layer_1" data-name="Layer 1" xmlns="http://www.w3.org/2000/svg" viewBox="0 0 415 45">
  <defs>
    <style>
      .cls-1 {
        fill: #ff8c00;
      }

      .cls-2 {
        fill: #fad4a3;
      }
    </style>
  </defs>
  <path class="cls-2" d="M22.5,0h370c12.43,0,22.5,10.07,22.5,22.5h0c0,12.43-10.07,22.5-22.5,22.5H22.5C10.07,45,0,34.93,0,22.5h0C0,10.07,10.07,0,22.5,0Z"/>
  <path class="cls-1" d="M28.59,0h299.83c15.79,0,28.59,10.07,28.59,22.5h0c0,12.43-12.8,22.5-28.59,22.5H28.59C12.8,45,0,34.93,0,22.5h0C0,10.07,12.8,0,28.59,0Z"/>
</svg>