<svg width="48" height="53" viewBox="0 0 48 53" fill="none" xmlns="http://www.w3.org/2000/svg">
<path d="M44.3025 8.69739L43.2418 9.75805L44.3025 8.69739ZM44.3025 49.305L43.2418 48.2443L44.3025 49.305ZM3.6975 49.305L2.63624 50.365L2.63684 50.3656L3.6975 49.305ZM3.6975 8.69739L4.75816 9.75805L3.6975 8.69739ZM20.25 30.0001C19.4216 30.0001 18.75 30.6717 18.75 31.5001C18.75 32.3285 19.4216 33.0001 20.25 33.0001V31.5001V30.0001ZM36.5 33.0001C37.3284 33.0001 38 32.3285 38 31.5001C38 30.6717 37.3284 30.0001 36.5 30.0001V31.5001V33.0001ZM11.5 30.0001C10.6716 30.0001 9.99998 30.6717 9.99998 31.5001C9.99998 32.3285 10.6716 33.0001 11.5 33.0001V31.5001V30.0001ZM12.75 33.0001C13.5784 33.0001 14.25 32.3285 14.25 31.5001C14.25 30.6717 13.5784 30.0001 12.75 30.0001V31.5001V33.0001ZM11.5 21.2501C10.6716 21.2501 9.99998 21.9216 9.99998 22.7501C9.99998 23.5785 10.6716 24.2501 11.5 24.2501V22.7501V21.2501ZM12.75 24.2501C13.5784 24.2501 14.25 23.5785 14.25 22.7501C14.25 21.9216 13.5784 21.2501 12.75 21.2501V22.7501V24.2501ZM11.5 38.7501C10.6716 38.7501 9.99998 39.4217 9.99998 40.2501C9.99998 41.0785 10.6716 41.7501 11.5 41.7501V40.2501V38.7501ZM12.75 41.7501C13.5784 41.7501 14.25 41.0785 14.25 40.2501C14.25 39.4217 13.5784 38.7501 12.75 38.7501V40.2501V41.7501ZM20.25 21.2501C19.4216 21.2501 18.75 21.9216 18.75 22.7501C18.75 23.5785 19.4216 24.2501 20.25 24.2501V22.7501V21.2501ZM36.5 24.2501C37.3284 24.2501 38 23.5785 38 22.7501C38 21.9216 37.3284 21.2501 36.5 21.2501V22.7501V24.2501ZM20.25 38.7501C19.4216 38.7501 18.75 39.4217 18.75 40.2501C18.75 41.0785 19.4216 41.7501 20.25 41.7501V40.2501V38.7501ZM36.5 41.7501C37.3284 41.7501 38 41.0785 38 40.2501C38 39.4217 37.3284 38.7501 36.5 38.7501V40.2501V41.7501ZM14 5.25001H15.5H14ZM34 5.25001H35.5H34ZM34 7.75001H35.5H34ZM14 7.75001H12.5H14ZM34 6.50489L33.9917 8.00487C36.7222 8.01993 38.6916 8.09057 40.1991 8.36767C41.664 8.63692 42.5633 9.07949 43.2418 9.75805L44.3025 8.69739L45.3632 7.63673C44.1217 6.3953 42.5885 5.75661 40.7415 5.4171C38.9372 5.08546 36.7153 5.01985 34.0083 5.00491L34 6.50489ZM44.3025 8.69739L43.2418 9.75805C44.0156 10.5318 44.4864 11.5957 44.7387 13.4714C44.9968 15.3904 45 17.9225 45 21.4999H46.5H48C48 18.0073 48.0032 15.2369 47.7119 13.0715C47.4148 10.8628 46.787 9.06053 45.3632 7.63673L44.3025 8.69739ZM46.5 21.4999H45V36.5H46.5H48V21.4999H46.5ZM46.5 36.5H45C45 40.0786 44.9968 42.6114 44.7387 44.5307C44.4864 46.4067 44.0155 47.4706 43.2418 48.2443L44.3025 49.305L45.3632 50.3656C46.787 48.9418 47.4149 47.1395 47.7119 44.9305C48.0032 42.7648 48 39.9938 48 36.5H46.5ZM44.3025 49.305L43.2418 48.2443C42.4698 49.0164 41.4062 49.4869 39.5297 49.739C37.6102 49.9968 35.0774 50 31.5 50V51.5V53C34.9926 53 37.7635 53.0032 39.9291 52.7122C42.1375 52.4156 43.9403 51.7885 45.3632 50.3656L44.3025 49.305ZM31.5 51.5V50H16.5V51.5V53H31.5V51.5ZM16.5 51.5V50C12.9226 50 10.3898 49.9968 8.47033 49.739C6.59376 49.4869 5.53025 49.0164 4.75816 48.2443L3.6975 49.305L2.63684 50.3656C4.05975 51.7885 5.86249 52.4156 8.07092 52.7122C10.2365 53.0032 13.0074 53 16.5 53V51.5ZM3.6975 49.305L4.75876 48.2449C3.98439 47.4697 3.51356 46.4051 3.2613 44.5297C3.00319 42.6107 3 40.0786 3 36.5H1.5H0C0 39.9938 -0.00318861 42.7642 0.288075 44.9296C0.58519 47.1385 1.21311 48.9403 2.63624 50.365L3.6975 49.305ZM1.5 36.5H3V21.4999H1.5H0V36.5H1.5ZM1.5 21.4999H3C3 17.9225 3.00319 15.3904 3.2613 13.4714C3.51359 11.5957 3.98445 10.5318 4.75816 9.75805L3.6975 8.69739L2.63684 7.63673C1.21305 9.06052 0.585157 10.8628 0.288075 13.0715C-0.00318825 15.2369 0 18.0073 0 21.4999H1.5ZM3.6975 8.69739L4.75816 9.75805C5.43673 9.07949 6.33604 8.63692 7.80086 8.36767C9.30842 8.09057 11.2778 8.01993 14.0083 8.00487L14 6.50489L13.9917 5.00491C11.2847 5.01985 9.06283 5.08546 7.25852 5.4171C5.41146 5.75661 3.87827 6.3953 2.63684 7.63673L3.6975 8.69739ZM20.25 31.5001V33.0001H36.5V31.5001V30.0001H20.25V31.5001ZM11.5 31.5001V33.0001H12.75V31.5001V30.0001H11.5V31.5001ZM11.5 22.7501V24.2501H12.75V22.7501V21.2501H11.5V22.7501ZM11.5 40.2501V41.7501H12.75V40.2501V38.7501H11.5V40.2501ZM20.25 22.7501V24.2501H36.5V22.7501V21.2501H20.25V22.7501ZM20.25 40.2501V41.7501H36.5V40.2501V38.7501H20.25V40.2501ZM14 5.25001H15.5C15.5 4.65327 15.7371 4.08097 16.159 3.65901L15.0983 2.59835L14.0377 1.53769C13.0531 2.52226 12.5 3.85762 12.5 5.25001H14ZM15.0983 2.59835L16.159 3.65901C16.581 3.23705 17.1533 3 17.75 3V1.5V0C16.3576 0 15.0223 0.553125 14.0377 1.53769L15.0983 2.59835ZM17.75 1.5V3H30.25V1.5V0H17.75V1.5ZM30.25 1.5V3C30.8467 3 31.419 3.23705 31.841 3.65901L32.9016 2.59835L33.9623 1.53769C32.9777 0.553125 31.6424 0 30.25 0V1.5ZM32.9016 2.59835L31.841 3.65901C32.2629 4.08097 32.5 4.65327 32.5 5.25001H34H35.5C35.5 3.85762 34.9469 2.52226 33.9623 1.53769L32.9016 2.59835ZM34 5.25001H32.5V7.75001H34H35.5V5.25001H34ZM34 7.75001H32.5C32.5 8.34675 32.2629 8.91905 31.841 9.34101L32.9016 10.4017L33.9623 11.4623C34.9469 10.4778 35.5 9.1424 35.5 7.75001H34ZM32.9016 10.4017L31.841 9.34101C31.419 9.76297 30.8467 10 30.25 10V11.5V13C31.6424 13 32.9777 12.4469 33.9623 11.4623L32.9016 10.4017ZM30.25 11.5V10H17.75V11.5V13H30.25V11.5ZM17.75 11.5V10C17.1533 10 16.581 9.76297 16.159 9.34101L15.0983 10.4017L14.0377 11.4623C15.0223 12.4469 16.3576 13 17.75 13V11.5ZM15.0983 10.4017L16.159 9.34101C15.7371 8.91905 15.5 8.34675 15.5 7.75001H14H12.5C12.5 9.1424 13.0531 10.4778 14.0377 11.4623L15.0983 10.4017ZM14 7.75001H15.5V5.25001H14H12.5V7.75001H14Z" fill="#231F15"/>
</svg>
