<svg width="53" height="53" viewBox="0 0 53 53" fill="none" xmlns="http://www.w3.org/2000/svg">
<path d="M26.5 51.5V31.3073C26.5 30.0321 27.0066 28.8093 27.9082 27.9076C28.8098 27.006 30.0326 26.4995 31.3077 26.4995C32.5828 26.4995 33.8056 27.006 34.7073 27.9076C35.6089 28.8093 36.1154 30.0321 36.1154 31.3073V41.8844H43.8077C45.8478 41.8844 47.8044 42.6949 49.247 44.1375C50.6896 45.5801 51.5 47.5367 51.5 49.5769V51.5M23.6423 11.4799C18.8475 6.2071 12.4153 2.70438 5.38467 1.53739C4.90176 1.46913 4.40983 1.50532 3.94211 1.64353C3.47439 1.78174 3.04179 2.01873 2.67353 2.3385C2.30527 2.65827 2.00994 3.05337 1.8075 3.49709C1.60506 3.94081 1.50022 4.42281 1.50006 4.91054V32.3342C1.4949 33.1763 1.80173 33.9905 2.36138 34.6198C2.92104 35.2491 3.69387 35.6488 4.53083 35.742C9.99166 36.4816 15.1634 38.6392 19.5308 41.9998M23.6423 11.4799L23.6462 22.1071M23.6423 11.4799C28.4376 6.20492 34.8713 2.70075 41.9039 1.53354C42.3868 1.46528 42.8787 1.50148 43.3464 1.63968C43.8141 1.77789 44.2467 2.01489 44.615 2.33466C44.9833 2.65443 45.2786 3.04952 45.481 3.49324C45.6835 3.93696 45.7883 4.41897 45.7885 4.90669V32.3304C45.7935 33.1731 45.4862 33.9878 44.9257 34.6171C44.3653 35.2465 43.5915 35.6459 42.7539 35.7381" stroke="#231F15" stroke-width="3" stroke-linecap="round" stroke-linejoin="round"/>
</svg>
